<?xml version="1.0" encoding="UTF-8"?>
<svg id="Layer_1" data-name="Layer 1" xmlns="http://www.w3.org/2000/svg" xmlns:xlink="http://www.w3.org/1999/xlink" viewBox="0 0 141.7 141.7">
  <defs>
    <style>
      .cls-1 {
        fill: #fff;
      }

      .cls-1, .cls-2, .cls-3 {
        stroke-width: 0px;
      }

      .cls-2 {
        fill: #c1ff72;
      }

      .cls-3 {
        fill: url(#radial-gradient);
        opacity: .7;
      }
    </style>
    <radialGradient id="radial-gradient" cx="70.85" cy="1007.6" fx="70.85" fy="1007.6" r="66.7" gradientTransform="translate(0 -936)" gradientUnits="userSpaceOnUse">
      <stop offset="0" stop-color="#1e634b"/>
      <stop offset="1" stop-color="#0c4332"/>
    </radialGradient>
  </defs>
  <g id="Layer_1-2" data-name="Layer 1">
    <circle class="cls-3" cx="70.85" cy="71.6" r="66.7"/>
    <g>
      <path class="cls-2" d="m62.55,33.7c.7,0,1.3-.6,1.3-1.3v-2.8c0-.6-.4-1-.8-1.2-.1.1-.4.2-.6.2h-.6c-.2,0-.4-.1-.6-.2-.5.2-.8.7-.8,1.2v2.8c0,.7.6,1.3,1.3,1.3h.8q-.1,0,0,0h0Z"/>
      <path class="cls-2" d="m61.25,25.2c-.2.1-.3.4-.3.6v1.8c0,.5.4.8.8.8h.6c.5,0,.8-.4.8-.8v-1.8c0-.1,0-.2-.1-.3.5,0,.9-.1,1.4-.2,1.5-.4,2.7-1.4,3.4-2.6-.5.4-1.1.7-1.8.9-3,.8-6.2-1-7-4-.4-1.6-.1-3.1.6-4.4-1.9,1.4-2.9,3.8-2.2,6.2.5,1.8,2,3.2,3.8,3.8Z"/>
      <path class="cls-1" d="m43.65,77.9c-.1-3-1-5.4-2.4-7-2.7-2.7-5.9-4-9.4-3.9-4,.1-6.9,1.3-8.8,3.5-.9,1-1.6,2.2-2.1,3.6-.5,1.3-.7,2.6-.7,3.8.2,2.6,1,4.7,2.4,6.2,2,2.4,4.9,3.6,8.6,3.6,4,0,7.3-1.3,9.9-3.8,1.6-1.4,2.4-3.5,2.5-6h0Zm-7.7,3.5c-.6,1.2-1.5,2-2.6,2.4-1.4.5-2.8.1-3.9-.8-1.2-1.1-2.1-3-2.1-5.3,0-4.6,3.1-7.2,6-6.2,2.2.7,3.6,3.5,3.6,6.2-.1,1.3-.4,2.6-1,3.7Zm-9-6.1c-.2.7-.3,1.5-.3,2.3v-.3c.1-.7.2-1.3.3-2Zm10.1,2.5v-.2c0-.7-.1-1.4-.3-2.1.2.7.3,1.4.3,2v.3Z"/>
      <path class="cls-1" d="m54.25,67.5h-6.6v17.4c0,2-.5,3.5-1.4,4.5-1.3,1.3-2.8,1.9-4.6,1.9-.3,0-.6,0-.9-.1l-.1,4.5h1.1c3.8,0,6.7-.8,8.9-2.5,2.4-2.2,3.5-4.8,3.5-7.9,0-.4,0-.8-.1-1.3l.2-16.5h0Z"/>
      <path class="cls-1" d="m33.15,63.2c0-1.7,1.4-3.1,3.1-3.1h2.6v1.6c0,1.7-1.4,3.1-3.1,3.1h-2.6v-1.6Z"/>
      <path class="cls-1" d="m31.15,64.8h-2.6c-1.7,0-3.1-1.4-3.1-3.1v-1.6h2.6c1.7,0,3.1,1.4,3.1,3.1v1.6Z"/>
      <path class="cls-1" d="m109.75,71h-.3c-4,.1-6.9,1.3-8.8,3.5-.9,1-1.6,2.2-2.1,3.6-.5,1.3-.7,2.6-.7,3.8h-10c.8-.4,1.2-1.5,1.2-3.3v-11.1h-7.7v11c-.2,2.5-1.7,3.7-4.5,3.5h-6.9c-3.1-.3-4.6-2.1-4.5-5.1v-2.3h0v-6.1h0l-.9-.6-.9-.6.9-.6.9-.5h0v-5.8h0l-.9-.6-.9-.6.9-.6.9-.5h0v-2h0v-4.6l-1.8-1.1.9-.6.9-.6v-5.8l-1.8-1.1.9-.6.9-.6v-6.1l-1.8-1-1.3-.7h0c-.1.1-.2.1-.3.1h-.3c-.1,0-.2,0-.3-.1l-1.3.7-1.8,1v6.6l.9.6.9.6-.9.6-.9.6v5.6l.9.6.9.6-.9.6-.9.6v1.9h0v4.6l1.8,1.1-1.8,1.1v5.8l1.8,1.1-1.8,1.1v10.8c.1,1.6.4,3,1,4.1,1.3,2.8,3.7,4.2,7.1,4.2h33.1c.3,0,.5.1.7.3,1.9,2.5,4.8,3.8,8.5,3.8,4,0,7.3-1.3,9.9-3.8,1.5-1.6,2.4-3.6,2.5-6.1-.2-3-1-5.4-2.4-7-2.7-2.6-5.7-3.9-9-4h0Zm-49.9-30.1v-4.5l1.1-.6,1.1-.6,1.1.6,1.1.6v4.5l-1.1.6-1.1.6-1.1-.6-1.1-.6Zm0,8.1v-4.5l1.1-.6,1.1-.6,1.1.6,1.1.6v4.5l-1.1.6-1.1.6-1.1-.6-1.1-.6Zm0,8.6v-1.7h0v-3.4l1.1-.6,1.1-.6,1.1.6,1.1.6v1.7h0v3.4l-1.1.6-1.1.6-1.1-.6-1.1-.6Zm0,8v-4.5l1.1-.6,1.1-.6,1.1.6,1.1.6v4.5l-1.1.6-1.1.6-1.1-.6-1.1-.6Zm0,3.6l1.1-.6,1.1-.6,1.1.6,1.1.6v4.5l-1.1.6-1.1.6-1.1-.6-1.1-.6v-4.5Zm51.6,17.5c-.2.1-.4.2-.7.3-1.1.3-2.2.2-3.2-.3-.2-.1-.5-.3-.7-.5-1.2-1-2.1-2.7-2.1-4.9,0-2.5,1.1-4.4,2.6-5.3,1-.6,2.1-.8,3.2-.5h.1c2.2.7,3.6,3.2,3.6,5.7,0,1.2-.3,2.5-.9,3.5-.4.9-1.1,1.6-1.9,2h0Zm2.9-3.4c.2-.6.3-1.2.3-1.8h0v-.7.6c0,.7-.1,1.3-.3,1.9h0Z"/>
    </g>
    <g>
      <path class="cls-2" d="m26.05,109.6c0-.1-.1-.2-.1-.3s-.1-.3-.1-.5v-4.6c0-.2,0-.4.1-.5s.1-.2.1-.3c.2-.6.6-1.1,1.2-1.4s1.3-.5,2.1-.5c.9,0,1.6.2,2.1.5s1,.8,1.2,1.4c0,.1.1.2.1.3s.1.3.1.5v4.6c0,.2,0,.4-.1.5s-.1.2-.1.3c-.2.6-.6,1.1-1.2,1.4s-1.3.5-2.1.5c-.9,0-1.6-.2-2.1-.5-.6-.3-1-.8-1.2-1.4Zm1.9-.3c.2.5.7.8,1.4.8s1.2-.3,1.5-.8c0-.1.1-.2.1-.3v-5c0-.1,0-.2-.1-.3-.2-.5-.7-.8-1.5-.8s-1.2.3-1.4.8c0,.1-.1.2-.1.3v5c0,.2,0,.3.1.3Z"/>
      <path class="cls-2" d="m35.55,109.5q0-.1.1-.2l1.5-.3c.1,0,.2,0,.2.1.1.3.3.5.6.7.3.2.6.3,1.1.3.3,0,.6-.1.9-.2s.4-.3.5-.6c.1-.1.1-.3.1-.5v-1.2c0-.2-.1-.3-.1-.4-.1-.3-.3-.5-.6-.6-.3-.1-.6-.2-.9-.2-.4,0-.7.1-.9.2-.2.2-.4.3-.5.5,0,.1-.1.1-.2.1h-1.5c-.1,0-.2-.1-.2-.1v-5.3c0-.1.1-.1.2-.1h6.3c.1,0,.2.1.2.1v1.2c0,.1-.1.1-.2.1h-4.5s-.1,0-.1.1v2.2h.1c.1-.1.4-.2.6-.3s.6-.2,1.1-.2c.7,0,1.4.1,1.9.4s.9.7,1.1,1.2c.1.2.1.4.2.7s.1.6.1,1c0,.6-.1,1.1-.2,1.5-.2.6-.6,1-1.2,1.3s-1.3.5-2.1.5c-.4,0-.9-.1-1.3-.1-.4-.1-.7-.2-1-.4-.3-.2-.5-.4-.7-.6-.4-.3-.6-.6-.6-.9h0Z"/>
      <path class="cls-2" d="m44.95,109.5q0-.1.1-.2l1.5-.3c.1,0,.2,0,.2.1.1.3.3.5.6.7.3.2.6.3,1.1.3.3,0,.6-.1.9-.2s.4-.3.5-.6c.1-.1.1-.3.1-.5v-1.2c0-.2-.1-.3-.1-.4-.1-.3-.3-.5-.6-.6-.3-.1-.6-.2-.9-.2-.4,0-.7.1-.9.2-.2.2-.4.3-.5.5,0,.1-.1.1-.2.1h-1.5c-.1,0-.2-.1-.2-.1v-5.3c0-.1.1-.1.2-.1h6.3c.1,0,.2.1.2.1v1.2c0,.1-.1.1-.2.1h-4.5s-.1,0-.1.1v2.2h.1c.1-.1.4-.2.6-.3s.6-.2,1.1-.2c.7,0,1.4.1,1.9.4s.9.7,1.1,1.2c.1.2.1.4.2.7s.1.6.1,1c0,.6-.1,1.1-.2,1.5-.2.6-.6,1-1.2,1.3s-1.3.5-2.1.5c-.4,0-.9-.1-1.3-.1-.4-.1-.7-.2-1-.4-.3-.2-.5-.4-.7-.6-.4-.3-.5-.6-.6-.9h0Z"/>
      <path class="cls-2" d="m53.85,109.8v-1.2s0-.1.1-.2l3.8-6.8s.1-.1.2-.1h1.6c.1,0,.2.1.1.1l-3.7,6.7h2.7s.1,0,.1-.1v-2.5c0-.1.1-.1.2-.1h1.6c.1,0,.2.1.2.1v2.5s0,.1.1.1h.9c.1,0,.2.1.2.1v1.2c0,.1-.1.1-.2.1h-.9s-.1,0-.1.1v1.3c0,.1-.1.1-.2.1h-1.6c-.1,0-.2-.1-.2-.1v-1.3s0-.1-.1-.1h-4.6c-.1.2-.2.1-.2.1h0Z"/>
      <path class="cls-2" d="m63.55,109.4c0-.1,0-.2.1-.2l1.5-.3c.1,0,.2,0,.2.1.1.3.3.5.6.7.3.2.7.3,1.2.3s1-.1,1.3-.4.4-.6.4-1.1-.2-.9-.5-1.2c-.3-.3-.8-.4-1.4-.4h-.5c-.1,0-.2-.1-.2-.1v-1.1c0-.1.1-.2.2-.2h.5c.5,0,.9-.1,1.2-.4s.5-.6.5-1-.1-.7-.4-1-.7-.4-1.2-.4c-.4,0-.8.1-1,.3-.3.2-.4.4-.5.7,0,.1-.1.1-.2.1l-1.5-.3c-.1,0-.2-.1-.1-.2.1-.3.2-.6.4-.8.2-.3.4-.5.7-.7.3-.2.6-.3,1-.4s.8-.2,1.3-.2,1,.1,1.5.2.8.3,1.1.6c.3.2.5.5.7.9.1.3.2.7.2,1.1s-.1.8-.3,1.2c-.2.4-.5.6-1,.9h0c.2.1.3.2.5.3.2.1.3.3.5.5s.3.4.4.7c.1.3.1.6.1.9,0,.5-.1.9-.3,1.2-.2.4-.4.7-.8.9-.3.3-.7.5-1.2.6-.4.1-.9.2-1.5.2-.9,0-1.7-.2-2.4-.5-.5-.3-.9-.8-1.1-1.5h0Z"/>
      <path class="cls-2" d="m72.85,109.8v-1.2s0-.1.1-.2l3.8-6.8s.1-.1.2-.1h1.6c.1,0,.2.1.1.1l-3.7,6.7h2.7s.1,0,.1-.1v-2.5c0-.1.1-.1.2-.1h1.6c.1,0,.2.1.2.1v2.5s0,.1.1.1h.9c.1,0,.2.1.2.1v1.2c0,.1-.1.1-.2.1h-.9s-.1,0-.1.1v1.3c0-.1-.1.1-.2.1h-1.6c-.1,0-.2-.1-.2-.1v-1.3s0-.1-.1-.1h-4.6c-.2.2-.2.1-.2.1h0Z"/>
      <path class="cls-2" d="m82.25,109.8v-1.2s0-.1.1-.2l3.8-6.8s.1-.1.2-.1h1.6c.1,0,.2.1.1.1l-3.7,6.7h2.7s.1,0,.1-.1v-2.5c0-.1.1-.1.2-.1h1.6c.1,0,.2.1.2.1v2.5s0,.1.1.1h.9c.1,0,.2.1.2.1v1.2c0,.1-.1.1-.2.1h-.9s-.1,0-.1.1v1.3c0,.1-.1.1-.2.1h-1.6c-.1,0-.2-.1-.2-.1v-1.3s0-.1-.1-.1h-4.6c-.1.2-.1.1-.2.1h0Z"/>
      <path class="cls-2" d="m91.95,108.6c0-.6.1-1,.4-1.4s.6-.7,1-.9h0c-.3-.2-.6-.4-.8-.8-.3-.4-.4-.8-.4-1.2s.1-.7.2-1.1c.2-.3.4-.6.7-.9s.7-.5,1.1-.6c.4-.2.9-.2,1.5-.2s1.1.1,1.5.2c.4.2.8.4,1.1.6.3.3.5.6.7.9s.2.7.2,1.1c0,.5-.1.9-.4,1.2-.3.3-.5.6-.8.8h0c.4.2.7.5,1,.9s.4.9.4,1.4c0,.4-.1.8-.3,1.2-.2.4-.4.7-.8.9-.3.3-.7.5-1.2.6s-1,.2-1.5.2-1.1-.1-1.5-.2c-.5-.2-.9-.4-1.2-.6-.3-.3-.6-.6-.8-.9,0-.4-.1-.8-.1-1.2h0Zm1.9,0c0,.5.2.8.5,1.1.3.3.8.4,1.3.4s1-.2,1.3-.4c.3-.3.5-.7.5-1.1,0-.5-.2-.8-.5-1.1-.3-.3-.8-.4-1.3-.4s-1,.2-1.3.4c-.3.2-.5.6-.5,1.1Zm1.9-3.1c.5,0,.9-.1,1.2-.4s.4-.6.4-.9-.1-.7-.4-.9-.7-.4-1.2-.4-.9.1-1.2.4-.4.6-.4.9.1.7.4.9.7.4,1.2.4Z"/>
      <path class="cls-2" d="m105.75,107.3h0s-.2,0-.4.1h-.5c-.4,0-.9-.1-1.3-.2-.4-.1-.7-.3-1.1-.6-.3-.3-.5-.6-.7-.9-.2-.4-.3-.8-.3-1.2,0-.5.1-.9.3-1.3s.5-.7.8-1,.7-.5,1.2-.6.9-.2,1.5-.2c.5,0,1,.1,1.5.2s.9.3,1.2.6c.3.3.6.6.8.9.2.4.3.8.3,1.3,0,.4-.1.8-.2,1.2-.1.4-.3.7-.6,1.1l-3.1,4.6s-.1.1-.2.1h-1.7c-.1,0-.2-.1-.1-.1l2.6-4h0Zm-.6-1.3c.5,0,1-.1,1.3-.4s.5-.7.5-1.1c0-.5-.2-.8-.5-1.1-.3-.3-.7-.4-1.3-.4s-1,.2-1.3.4c-.3.3-.5.7-.5,1.1,0,.5.2.8.5,1.1.4.2.8.4,1.3.4Z"/>
      <path class="cls-2" d="m115.15,107.3h0s-.2,0-.4.1h-.5c-.4,0-.9-.1-1.3-.2-.4-.1-.7-.3-1.1-.6-.3-.3-.5-.6-.7-.9-.2-.4-.3-.8-.3-1.2,0-.5.1-.9.3-1.3s.5-.7.8-1,.7-.5,1.2-.6.9-.2,1.5-.2c.5,0,1,.1,1.5.2s.9.3,1.2.6c.3.3.6.6.8.9.2.4.3.8.3,1.3,0,.4-.1.8-.2,1.2-.1.4-.3.7-.6,1.1l-3.1,4.6s-.1.1-.2.1h-1.7c-.1,0-.2-.1-.1-.1l2.6-4h0Zm-.5-1.3c.5,0,1-.1,1.3-.4s.5-.7.5-1.1c0-.5-.2-.8-.5-1.1-.3-.3-.7-.4-1.3-.4s-1,.2-1.3.4c-.3.3-.5.7-.5,1.1,0,.5.2.8.5,1.1.3.2.8.4,1.3.4Z"/>
    </g>
    <g>
      <path class="cls-2" d="m68.85,45.6q-.1,0-.1-.1v-.9q0-.1.1-.1h1.5c.5,0,1,.2,1.3.5s.5.8.5,1.5v1c0,.2.1.4.2.5.1.1.3.2.6.2h.2c.1,0,.2,0,.3.1s.1.2.1.4,0,.4-.1.4c-.1.1-.2.1-.3.1-.3,0-.5,0-.7-.1s-.4-.2-.5-.5c-.1.2-.3.4-.5.5s-.5.1-.8.1h-2.2q-.1,0-.1-.1v-.9q0-.1.1-.1h2.2c.1,0,.2-.1.2-.1.1-.1.1-.2.1-.3v-1.1c0-.3-.1-.6-.3-.7s-.4-.2-.8-.2l-1-.1h0Z"/>
      <path class="cls-2" d="m73.65,45.4c.2-.2.4-.5.7-.6.3-.2.6-.2,1-.2s.8.1,1.1.2.5.3.7.6c.2.2.3.5.4.9.1.3.1.7.1,1v.2c0,.2.1.3.2.5.1.1.3.2.6.2h.2c.1,0,.2,0,.3.1s.1.2.1.4,0,.4-.1.4-.2.1-.3.1c-.3,0-.5,0-.7-.1s-.4-.2-.5-.5c-.1.2-.3.4-.5.5s-.5.1-.8.1h-3c-.1,0-.2,0-.3-.1s-.1-.2-.1-.4,0-.3.1-.4c.1-.1.2-.1.3-.1h3c.1,0,.2-.1.2-.2.1-.1.1-.2.1-.3v-.4c0-.2,0-.4-.1-.6s-.1-.4-.2-.5c-.1-.1-.2-.3-.4-.3-.2-.1-.3-.1-.6-.1s-.4,0-.6.1c-.2.1-.3.2-.5.4,0,.1-.1.1-.1,0l-.5-.6c.2-.2.2-.3.2-.3h0Zm1.4,5.8q-.1,0-.1-.1v-.9q0-.1.1-.1h.9q.1,0,.1.1v.9q0,.1-.1.1h-.9Z"/>
      <path class="cls-2" d="m81.05,47.4c0,.2.1.4.2.5.1.1.3.2.5.2h.4c.1,0,.2-.1.2-.2s.1-.2.1-.3v-2q0-.1.1-.1h.9q.1,0,.1.1v1.8c0,.2.1.4.2.5.1.1.3.2.5.2h.4c.1,0,.2-.1.2-.2s.1-.2.1-.3v-2.7q0-.1.1-.1h.9q.1,0,.1.1v2.6c0,.2.1.4.2.5.1.1.3.2.6.2h.2c.1,0,.2,0,.3.1s.1.2.1.4,0,.4-.1.4-.2.1-.3.1c-.3,0-.5,0-.7-.1s-.3-.2-.5-.5c-.1.2-.2.3-.4.4-.2.1-.4.1-.7.1h-.4c-.2,0-.4,0-.6-.1s-.3-.2-.4-.4c-.1.2-.2.4-.4.4-.2.1-.4.1-.7.1h-.4c-.5,0-.8-.2-1-.6-.1.2-.2.4-.4.4-.2.1-.4.1-.7.1h-1.3q-.1,0-.1-.1l-.1-.1v-.3c0-.2,0-.4.1-.5s.2-.1.3-.1h.8c.1,0,.2,0,.3-.1.1,0,.1-.1.1-.2v-2q0-.1.1-.1h.9q.1,0,.1.1l.1,1.8h0Z"/>
      <path class="cls-2" d="m87.95,46.8c0-.4.1-.8.2-1.1.1-.3.2-.5.4-.7s.4-.3.6-.4.5-.1.8-.1.6,0,.8.1c.3.1.5.2.6.4.2.2.3.4.4.7.1.3.2.7.2,1.1v.4c0,.3.1.5.2.6.1.1.3.2.4.2h.3c.1,0,.2,0,.3.1s.1.2.1.4,0,.4-.1.4-.2.1-.3.1h-.3c-.1,0-.2,0-.4-.1-.1,0-.2-.1-.3-.2-.1-.1-.2-.2-.3-.3-.2.2-.4.4-.7.5s-.6.2-.9.2-.6,0-.9-.1c-.3-.1-.5-.3-.7-.5-.1.1-.1.2-.2.3s-.2.1-.3.2c-.1,0-.2.1-.3.1h-.6c-.1,0-.2,0-.3-.1s-.1-.2-.1-.4,0-.3.1-.4c.1-.1.2-.1.3-.1h.4c.2,0,.3-.1.4-.2.1-.1.2-.4.2-.8v-.3h0Zm2-1.2c-.3,0-.5.1-.7.3s-.2.5-.2,1,.1.8.2,1c.2.2.4.3.7.3s.6-.1.7-.3c.2-.2.2-.5.2-1,.1-.9-.2-1.3-.9-1.3h0Z"/>
      <path class="cls-2" d="m92.85,49.2c-.1,0-.2,0-.3-.1s-.1-.2-.1-.4,0-.3.1-.4c.1-.1.2-.1.3-.1h.5c.2,0,.3,0,.4-.1.1-.1.1-.2.1-.5v-5.6q0-.1.1-.1h.9q.1,0,.1.1v5.9c0,.5-.1.8-.3,1s-.5.3-.9.3h-.9Z"/>
      <path class="cls-2" d="m97.35,49.1q0,.1-.1.1h-.9q-.1,0-.1-.1v-7.1q0-.1.1-.1h.9q.1,0,.1.1c0-.1,0,7.1,0,7.1Z"/>
      <path class="cls-2" d="m103.65,44.5v-.5q0-.1.1-.1h.9q.1,0,.1.1v3.5c0,.2,0,.4.1.5s.2.1.4.1h.4c.3,0,.4.2.4.5,0,.2,0,.4-.1.4s-.2.1-.3.1h-.8c-.3,0-.6-.1-.8-.2-.2-.1-.3-.3-.4-.6-.1.1-.3.2-.5.3s-.4.1-.6.1c-.3,0-.5,0-.7-.1s-.4-.2-.6-.4c-.2-.2-.3-.4-.4-.6-.1-.3-.1-.6-.1-.9,0-.4.1-.8.2-1,.1-.3.3-.5.4-.7.2-.2.4-.3.6-.4s.5-.1.7-.1h1Zm-1.9-1.3q-.1,0-.1-.1v-.9q0-.1.1-.1h.8q.1,0,.1.1v.9q0-.1-.1.1h-.8Zm.9,4.5c.3,0,.5-.1.7-.3s.2-.5.2-.9v-.9h-.9c-.3,0-.5.1-.7.2s-.3.5-.3.9c0,.3.1.6.2.7.3.2.6.3.8.3Zm.4-4.5q-.1,0-.1-.1v-.9q0-.1.1-.1h.8q.1,0,.1.1v.9q0-.1-.1.1h-.8Z"/>
      <path class="cls-2" d="m106.65,48.1c-.1-.2-.2-.4-.3-.6-.1-.2-.1-.5-.1-.8,0-.2,0-.5.1-.8s.2-.5.4-.7.4-.4.7-.5.6-.2,1-.2.8.1,1.1.2c.3.2.5.4.7.6v.2l-.5.6c0,.1-.1,0-.1,0-.3-.3-.6-.5-1-.5-.3,0-.6.1-.8.3s-.3.5-.3.9c0,.2,0,.4.1.6.1.2.1.3.2.4s.2.2.3.3.2.1.2.1h2.1q.1,0,.1.1v.9q0,.1-.1.1h-4.6c-.1,0-.2,0-.3-.1s-.1-.2-.1-.4,0-.3.1-.4c.1-.1.2-.1.3-.1l.8-.2h0Z"/>
      <path class="cls-2" d="m111.45,41.9q0-.1.1-.1h.9q.1,0,.1.1v5.6c0,.2,0,.4.1.5s.2.1.4.1h.3c.1,0,.2,0,.3.1s.1.2.1.4,0,.4-.1.4c-.1.1-.2.1-.3.1h-.8c-.4,0-.7-.1-.9-.3s-.3-.6-.3-1c.1,0,.1-5.9.1-5.9Z"/>
      <path class="cls-2" d="m115.65,47.4c0,.4.2.7.7.7h.3c.1,0,.2-.1.2-.1,0-.1.1-.1.1-.2v-2q0-.1.1-.1h.9q.1,0,.1.1v1.8c0,.2.1.4.2.5.1.1.3.2.5.2h.4c.1,0,.2-.1.2-.2s.1-.2.1-.3v-2.7q0-.1.1-.1h.9q.1,0,.1.1v3c0,.5-.1.9-.3,1.1-.2.2-.5.3-1,.3h-.4c-.2,0-.4,0-.6-.1-.2-.1-.3-.2-.4-.4-.1.2-.2.4-.4.4-.2.1-.4.1-.7.1h-.4c-.5,0-.8-.2-1-.6-.1.2-.2.4-.4.4-.2.1-.4.1-.7.1h-1.1c-.1,0-.2,0-.3-.1s-.1-.2-.1-.4,0-.4.1-.5.2-.1.3-.1h.8c.2,0,.3-.1.4-.2,0-.1.1-.3.1-.6v-1.6q0-.1.1-.1h.9q.1,0,.1.1l.1,1.5h0Z"/>
    </g>
    <path class="cls-1" d="m87.45,61.7c0,1.7-1.4,3.1-3.1,3.1h-2.6v-1.6c0-1.7,1.4-3.1,3.1-3.1h2.6v1.6Z"/>
  </g>
</svg>